<svg xmlns="http://www.w3.org/2000/svg" width="1200" height="630" viewBox="0 0 1200 630">
  <defs>
    <linearGradient id="bg" x1="0%" y1="0%" x2="100%" y2="100%">
      <stop offset="0%" style="stop-color:#1e1b4b"/>
      <stop offset="50%" style="stop-color:#312e81"/>
      <stop offset="100%" style="stop-color:#4f46e5"/>
    </linearGradient>
    <linearGradient id="card" x1="0%" y1="0%" x2="0%" y2="100%">
      <stop offset="0%" style="stop-color:#ffffff"/>
      <stop offset="100%" style="stop-color:#e0e7ff"/>
    </linearGradient>
    <filter id="shadow" x="-20%" y="-20%" width="140%" height="140%">
      <feDropShadow dx="0" dy="8" stdDeviation="16" flood-color="#000" flood-opacity="0.35"/>
    </filter>
  </defs>
  <rect width="1200" height="630" fill="url(#bg)"/>
  <g stroke="#6366f1" stroke-opacity="0.15" stroke-width="1">
    <path d="M0 105 H1200 M0 210 H1200 M0 315 H1200 M0 420 H1200 M0 525 H1200"/>
    <path d="M150 0 V630 M300 0 V630 M450 0 V630 M600 0 V630 M750 0 V630 M900 0 V630 M1050 0 V630"/>
  </g>
  <g filter="url(#shadow)" transform="translate(420,90)">
    <rect x="0" y="30" width="360" height="420" rx="28" fill="url(#card)"/>
    <rect x="120" y="0" width="120" height="50" rx="12" fill="#4f46e5"/>
    <rect x="140" y="12" width="80" height="16" rx="8" fill="#a5b4fc"/>
    <g fill="none" stroke="#4f46e5" stroke-width="8" stroke-linecap="round">
      <path d="M70 140 L95 165 L145 110"/>
      <path d="M70 230 L95 255 L145 200"/>
      <path d="M70 320 L95 345 L145 290"/>
    </g>
    <g stroke="#c7d2fe" stroke-width="10" stroke-linecap="round">
      <line x1="180" y1="140" x2="310" y2="140"/>
      <line x1="180" y1="230" x2="300" y2="230"/>
      <line x1="180" y1="320" x2="280" y2="320"/>
    </g>
    <rect x="60" y="390" width="240" height="14" rx="7" fill="#e0e7ff"/>
    <rect x="60" y="390" width="160" height="14" rx="7" fill="#6366f1"/>
  </g>
  <text x="600" y="560" text-anchor="middle" font-family="Arial, Helvetica, sans-serif" font-size="42" font-weight="700" fill="#ffffff">TaskManager</text>
  <text x="600" y="598" text-anchor="middle" font-family="Arial, Helvetica, sans-serif" font-size="18" fill="#a5b4fc">Full Stack · JWT · React · Node</text>
</svg>
